<?xml version="1.0" encoding="UTF-8"?> <svg xmlns="http://www.w3.org/2000/svg" xmlns:xlink="http://www.w3.org/1999/xlink" version="1.1" id="Layer_1" x="0px" y="0px" viewBox="0 0 1964 339.6" style="enable-background:new 0 0 1964 339.6;" xml:space="preserve"> <style type="text/css"> .st0{fill:#0033FF;} </style> <g id="logo_front_1_"> <g> <path class="st0" d="M228.1,234.1c1.6-26.9,10.8-52.6,26.3-74.8c-2.3-32.7-25.4-61.7-64.5-65.5c-21.2-2-40.5,3.8-58.1,15.6 c-2.9,2-5.9,6-9.5,0.6c-6.7-10-16.6-12.6-28-12.2c-8.6,0.3-17.2-0.1-25.8,0.1c-19.2,0.6-33.7,13.4-36.9,32.4 c-2.1,12.6-4,25.2-6.3,37.7c-8.2,46-16.5,92.1-24.8,138.2c-3.1,17.3,7.7,30.4,25.5,30.9c9.2,0.3,18.4,0.1,27.6,0.1 c22.6-0.1,36.5-11,40.8-33.1c4.7-24.2,8.3-48.5,12.8-72.7c2.4-13.1,2.5-26.8,9.2-38.7c6.4-11.4,18.5-16.7,28.3-13.2 c9.3,3.4,12.8,13,10.3,27.3c-5.8,33-11.6,66-17.2,99c-3.1,18.1,7.6,30.8,25.9,31.3c5,0.1,10.1,0,15.1,0l0,0c3,0,5.9,0,8.9,0 c27,0,39.8-10.3,44.7-37.1c1-5.6,2-11.2,3.1-16.8C229.5,268.7,227,252.3,228.1,234.1z"></path> <path class="st0" d="M598.3,182.9c16.6-8.3,34.3-3.7,46.2,12.1c5.5,7.3,10.6,6.9,14,6c4-1,8-2.1,12.1-3.1 c15.5-3.9,31.5-7.9,46.3-14.1c1-0.4,2-0.9,2.9-1.4c-7-5.2-10.3-13.4-9.7-24.5c0.5-8.7,1.9-17.6,4.1-26.3 c-9.5-10.6-21.2-18.8-34.8-24.4c-30.2-12.3-62.4-12.4-98.6-0.2c-57.9,19.5-96.5,72.8-98.4,135.7c0.4,19.6,6.6,47.5,33.9,69.2 c23,18.3,50.9,25.7,85.5,22.6c43-3.9,79.1-23.7,107.4-58.8c4.7-5.9,6.4-12,4.8-17.3c-1.7-5.5-6.8-9.8-14.3-12.2 c-5.3-1.7-10.7-3.3-16-4.9c-8.5-2.6-17.3-5.2-25.9-8.1c-7-2.4-12.8-1-18.9,4.3c-1.1,1-2.2,2-3.2,3c-3.2,3-6.4,6-10.5,8.4 c-11.1,6.5-23.5,7.7-33.8,3.4c-9.2-3.8-15.6-11.5-18.2-21.6C568.4,212.6,579,192.5,598.3,182.9z"></path> <path class="st0" d="M846.2,261.9c-5.3-0.4-12.8-1.6-17.1-7.1c-4.4-5.6-3.7-13.3-2.9-18.7c0.8-4.7,1.6-9.3,2.5-14 c1.3-7.4,2.7-15.1,3.8-22.7l0.1-0.7c2.3-16.7,4.4-18.5,21.7-20c5.8-0.5,14.6-2.1,20.8-7.4c2-11.1,3.9-22.2,5.9-33.1l1.2-6.5 c1-5.8,2.6-10.9,4.7-15.4c-0.5-1.7-1.3-3.1-2.3-4.2c-3-3.4-8.9-5-18.5-5.1c-6.5-0.1-10.5-0.2-13.1-3.3c-2.6-3.1-2.1-6.8-1-13.5 c1.4-8.9,0.1-15.8-3.8-20.5c-3.9-4.7-10.5-7.1-19.5-7.3c-3.1-0.1-6.2-0.1-9.3-0.1c-2.6,0-5.2,0-7.7,0h-5.1 c-23.8,0.1-33.9,8.2-38.5,31.1c-1.9,9.3-6.6,13.4-16.3,13.9c-11.1,0.6-19.2,6.9-22.7,17.5c-3.7,11.1-5.9,22.4-6.5,33.5 c-0.7,11.9,4,17.7,15.5,19.5c3.2,0.5,7.9,1.6,10.6,5.5c2.7,3.8,2.3,8.5,1.5,12.5c-4,21.9-8,45.4-12.2,71.8 c-3.6,22.9,4,40.8,23.1,54.8c14,10.3,31.1,14.7,53.7,13.8h0.2h4.7c2.8,0,5.1,0,7.5,0c17.9-0.1,25.5-6.3,29-23.8 c1.9-9.2,3.6-19.2,5.5-32.2c0.8-5.6,0-10-2.5-13.1C855.8,263.4,850.3,262.2,846.2,261.9z"></path> <path class="st0" d="M1113.7,130.7c1-5.6,3-10.7,5.6-15.1c-2.5-8.1-9-12.8-18.8-13.3c-11.6-0.5-22.8-0.5-33.4,0 c-15.8,0.8-27.4,11.1-30.2,27c-2,11.3-4,22.6-6.1,34c-3.3,18.5-6.7,37.5-10.1,56.3c-2.1,11.4-6.5,19.9-13.4,26.3 c-9.9,9-19.6,11.3-29.7,7.1c-15-6.3-14.5-21.2-14.3-26.1c0.3-9.1,2-18.1,3.6-26.7c0.5-2.5,0.9-5,1.4-7.5c1.2-7,2.5-13.9,3.7-20.9 c2.6-14.1,5.2-28.7,7.5-43c1.3-8.1,0-14.8-3.7-19.2c-3.8-4.6-10.4-7.1-19.1-7.3c-2.9-0.1-5.8,0-8.7,0c-1.5,0-3.1,0-4.6,0h-1.9 c-1.8,0-3.5,0-5.3,0c-1.2,0-2.3,0-3.5,0c-22.1,0.1-33.6,9.8-37.5,31.4l-1.2,6.5c-5.7,32-11.6,65.1-17,97.7 c-6.5,39.1,13.4,75.1,49.3,89.7c29.3,11.9,59.9,11.9,91.1,0.2c33.3-12.5,57.2-32.3,71.1-58.8 C1096.8,221.9,1105.4,175.5,1113.7,130.7z"></path> <path class="st0" d="M1251.1,177.4c0.6,0.1,1.2,0.1,1.8,0.1c0.4-2.3,0.8-4.6,1.2-6.9c2-12.1,4.1-24.5,6.7-36.7 c1.8-8.6,4.7-15.6,8.7-21.2c-1.1-3.1-3.1-5.7-5.8-7.5c-4-2.6-9-3-14.1-1.2c-9.8,3.5-19.2,8.4-27.9,14.5c-2.2,1.5-5.1,3.2-8.5,2.5 s-5.4-3.3-6.9-5.7c-3.8-6.2-9.8-9.3-18.3-9.3c-0.3,0-0.7,0-1.1,0c-3,0-6,0-9,0c-6.6,0-13.5-0.1-20.2,0.1 c-16.7,0.4-28.4,10.3-31.4,26.4c-8.7,46.9-17.7,95.3-26,144.4c-0.7,4.1-1.6,8.2-2.4,12.2c-1.9,9.1-3.8,17.6-3.7,26.4 c0.1,11.3,7.1,18.8,18.2,19.7c3.8,0.3,7.7,0.2,11.7,0.1c1.9,0,3.8-0.1,5.7-0.1h5.1v0.2c1.9,0,3.8,0,5.6,0 c22.9,0,33.5-8.7,37.9-30.7c4.5-22.6,8.5-45.8,12.3-68.1c0.9-5,1.7-10,2.6-15C1199,188.9,1217.9,174.4,1251.1,177.4z"></path> <g> <path class="st0" d="M1463.3,252.7c-0.9-35.7,6.4-66.8,21.7-93.1c-3.4-29.9-27.5-54-57.6-56.9c-20.2-2-39,3.1-57.3,15.3l-0.6,0.4 c-2.3,1.6-5.4,3.7-9.3,2.9c-2.6-0.6-4.8-2.3-6.7-5.3c-3.9-6.3-10-9.2-19.1-9.2c-0.1,0-0.1,0-0.2,0c-3.8,0-7.6,0-11.4,0 c-2.5,0-5,0-7.6,0c-2,0-4,0-5.9,0c-21.5,0.1-32.1,8.6-36.4,29.3c-2.5,12-4.6,24.4-6.6,36.4c-1,5.9-2,11.8-3,17.8 c-2.2,12.6-4.5,25.3-6.8,37.9c-4.8,26.9-9.8,54.7-14.5,82.1c-1.4,8-0.2,14.5,3.4,18.9c3.7,4.5,10.1,6.9,18.6,7 c9.2,0.1,18.7,0.1,28.3,0c17.4-0.3,29.5-10.4,32.6-27.2c4.4-23.9,8.7-48.3,12.8-71.9c1.6-9,3.2-18,4.8-27 c2.3-13.1,8.1-22.3,17.7-28.4c8.3-5.2,17.3-6,24.7-2c7.3,3.9,11.6,11.7,11.8,21.4c0.1,5.4-0.3,11.1-1.3,16.9 c-2.4,14-4.8,28-7.3,42c-3,17.2-6.1,35.1-9.1,52.6c-1.1,6.3,0.1,11.9,3.5,16.2c3.3,4.2,8.7,6.8,15.2,7.3 c3.8,0.3,7.7,0.2,11.7,0.1c1.9,0,3.8-0.1,5.7-0.1h5v0.1c30.6-0.1,38.4-6.8,44.1-37.5l1.5-8c0.6-3,1.1-6.1,1.7-9.2 C1465,272.5,1463.5,262.9,1463.3,252.7z"></path> </g> <g> <g> <path class="st0" d="M1879.9,212.2c4.9,0.2,10.9-0.4,17,0.4c18.7,2.5,27.6,18.4,19.9,35.7c-2.6,5.9-6.5,10.7-11.8,14.2 c-2.3,1.5-2.5,2.9-1.5,5.3c2.2,5.2,4.2,10.5,6.1,15.7c2,5.3,0.1,8-5.7,8.1c-3.3,0.1-6.6,0.1-9.8,0c-5.4-0.1-9.1-2.7-11.1-7.7 c-1.5-3.7-3-7.4-4.3-11.2c-1.5-4.4-5-2.5-7.8-2.8c-2.7-0.3-2.7,1.9-3.1,3.7c-0.6,3.2-1.1,6.5-1.8,9.7c-1.1,5.4-4.5,8.1-9.9,8.3 c-2.6,0.1-5.1,0.1-7.7,0c-4.9-0.2-7.4-3.2-6.6-7.9c3.6-20.8,7.3-41.6,11-62.3c1.1-6.4,4.5-9.1,11.1-9.2 C1869,212.2,1873.9,212.2,1879.9,212.2z M1883.3,234.5L1883.3,234.5c-2,0-4.1,0-6.1,0c-1.6,0-2.6,0.5-2.8,2.1 c-0.5,2.8-1,5.6-1.5,8.4c-0.3,1.7,0.3,2.7,2.2,2.7c3.9-0.1,7.8,0.1,11.6-0.1c4.2-0.2,7.2-3.6,7.3-7.7c0.1-3.3-1.6-5.2-4.9-5.4 C1887.2,234.4,1885.3,234.5,1883.3,234.5z"></path> </g> </g> <path class="st0" d="M1962.7,252.7c4.1-22.9-1.4-45.1-15.1-61l0,0c-12.8-14.9-31.6-23-52.7-23.1c-44.8,0-87.9,37-96,82.5 c-4.1,22.9,1.4,45.1,15.1,61c12.8,14.9,31.6,23,52.7,23C1911.5,335.2,1954.5,298.2,1962.7,252.7z M1863.9,313.6 c-13.3-1.1-24.9-6.8-33.1-16.3c-10.1-11.7-13.9-27.5-10.9-44.6c6.2-34.5,38.7-62.5,72.6-62.6c15.4,0,28.9,5.9,38.1,16.5 c10.1,11.7,13.9,27.5,10.9,44.6c-5.9,32.8-35.5,59.7-67.5,62.3C1870.7,313.6,1867.3,313.6,1863.9,313.6z"></path> <g> <path class="st0" d="M1787.5,249.4c3-17,10.5-32.9,21-46.5c0.6-3.7,1.3-7.4,2-11.2c5.7-32.5,11.6-65.5,17.3-97.5 c3.9-22.1,7.9-44.1,11.8-66.2c1.3-7.4,0.1-13.8-3.5-18.3c-3.5-4.4-9.2-7-16.4-7.3c-9.9-0.5-20.5-0.5-31.5,0 c-16.7,0.8-28,10.3-31.8,26.8c-0.9,3.8-1.5,7.7-2.1,11.8c-0.3,2.1-0.7,4.2-1,6.3l-10.3,58c-6.6,37.3-13.2,74.6-19.8,111.9 l-2,11.5c-4.8,27.2-9.8,55.4-14.4,83.1c-1.2,7.1,0.1,13.1,3.7,17.5c3.7,4.5,9.7,7,17.2,7.2c3.3,0.1,6.6,0.1,10.4,0 c1.9,0,3.9,0,6.2,0c0.9,0,1.7-0.1,2.6-0.1c1.5,0,3,0.1,4.6,0.1c4.6,0.2,9.4,0.3,13.8-0.8c15.5-4,23.6-14.5,26.9-35.2 c0.1-0.7,0.2-1.5,0.4-2.3C1786.3,283.5,1784.5,266.6,1787.5,249.4z"></path> </g> <path class="st0" d="M469.4,243.1V243c0.8-27.8,8.4-53.8,21.3-76.2c-3.2-10-8.2-19.5-15-28.5c-19.2-25.4-47.2-37.8-88.1-38.9 C310,101,245.7,160.2,241.1,234.1c-2.1,34.1,9.6,61.5,34.8,81.3c22.1,17.4,48.9,24.5,81.9,21.8c49.2-4.1,90.6-29.7,114.9-68.7 c-2.4-9.1-3.3-17.7-3.4-25.2L469.4,243.1z M391.1,244.1c-3,2.8-13.9,12.9-29.7,12.2c-3-0.1-12.2-0.7-20.4-7.6 c-10.2-8.6-11.3-21-11.5-23.4c-1.4-20.6,17.7-41.5,38.5-44.2c2.8-0.4,16.8-2.2,27.5,7.3c8.3,7.4,9.7,17.3,10.1,20.4 C408,226.7,395.4,240.1,391.1,244.1z"></path> <path class="st0" d="M1723.6,104c-19.1-3.8-35.3-3.6-49.7,0.4c-19.4,5.5-22.9,6.5-43.6-1.1c-10.6-3.9-21.2-5.9-31.7-5.9 c-17.7,0-35.2,5.6-52.3,16.7c-47.7,31.1-71,77.6-69.5,138.2c0.6,21.7,7.3,51.6,36.2,70.6c27.1,17.7,56.7,18.1,90.5,1.2l1.1-0.6 c6.7-3.4,15.8-8,24.3,4c2.5,3.5,8.6,4,12.1,4c3.9,0,7.8,0,11.8,0h5.1c0.2,0,0.3,0,0.5,0c18.2,0,29-1.5,36-7.4 c-1-4.4-1.2-9.2-0.3-14.2c4.6-27.8,9.6-55.9,14.4-83.2l2-11.5c6.4-36.2,12.8-72.4,19.2-108.5C1728,105.5,1725.9,104.5,1723.6,104z M1624.7,242.6c-2.6,2.4-11.4,10.6-24.3,12c-1.7,0.3-3.4,0.4-5.1,0.4c-4.7,0-9.1-1.1-13.2-3.2c0,0-0.1,0-0.1-0.1 c-2.4-1.1-4.9-2.6-7.4-4.6c-10.2-8.6-11.3-21-11.5-23.4c-1.4-20.6,17.7-41.5,38.5-44.2c2.8-0.4,16.8-2.2,27.5,7.3 c8.3,7.4,9.7,17.3,10.1,20.4C1641.7,225.3,1629,238.6,1624.7,242.6z"></path> </g> </g> </svg> 